<svg xmlns="http://www.w3.org/2000/svg" viewBox="0 0 512 512" role="img" aria-labelledby="title desc">
  <title id="title">Sony eBook Library Revival icon</title>
  <desc id="desc">A modern reading-focused app icon with a refined reader silhouette and open page mark.</desc>
  <defs>
    <linearGradient id="bg" x1="0" y1="0" x2="1" y2="1">
      <stop offset="0%" stop-color="#fff8ef" />
      <stop offset="55%" stop-color="#ead7bf" />
      <stop offset="100%" stop-color="#b98e65" />
    </linearGradient>
    <linearGradient id="body" x1="0" y1="0" x2="0" y2="1">
      <stop offset="0%" stop-color="#6f4c34" />
      <stop offset="100%" stop-color="#2f2017" />
    </linearGradient>
    <linearGradient id="screen" x1="0" y1="0" x2="1" y2="1">
      <stop offset="0%" stop-color="#fbfbf5" />
      <stop offset="100%" stop-color="#e8e7dc" />
    </linearGradient>
  </defs>
  <rect width="512" height="512" rx="120" fill="url(#bg)" />
  <rect x="102" y="74" width="308" height="364" rx="52" fill="url(#body)" />
  <rect x="128" y="102" width="256" height="294" rx="22" fill="url(#screen)" />
  <path d="M182 168c23-12 49-18 78-18 17 0 34 2 50 7v148c-15-7-31-10-50-10-30 0-56 8-78 21V168Z" fill="#f8f7ee" />
  <path d="M330 168c-23-12-49-18-78-18-17 0-34 2-50 7v148c15-7 31-10 50-10 30 0 56 8 78 21V168Z" fill="#fffdf6" opacity="0.95" />
  <path d="M256 154v164" stroke="#a98e73" stroke-width="7" stroke-linecap="round" />
  <path d="M186 198c17-7 35-10 55-10" stroke="#8e7b68" stroke-width="8" stroke-linecap="round" opacity="0.62" />
  <path d="M186 230c17-7 35-10 55-10" stroke="#8e7b68" stroke-width="8" stroke-linecap="round" opacity="0.42" />
  <path d="M272 188c18 0 38 3 54 10" stroke="#8e7b68" stroke-width="8" stroke-linecap="round" opacity="0.62" />
  <path d="M272 220c18 0 38 3 54 10" stroke="#8e7b68" stroke-width="8" stroke-linecap="round" opacity="0.42" />
  <rect x="178" y="338" width="156" height="14" rx="7" fill="#ddd8c8" />
  <circle cx="256" cy="415" r="11" fill="#dbc4a8" />
  <path d="M128 102h256v40c-56 12-130 18-256 0v-40Z" fill="#ffffff" opacity="0.14" />
</svg>
