<svg xmlns="http://www.w3.org/2000/svg" viewBox="0 0 1200 860" role="img" aria-labelledby="title desc">
  <title id="title">Sony eBook Library Revival site illustration</title>
  <desc id="desc">An aero and e-ink inspired illustration of the desktop app managing a Sony Reader.</desc>
  <defs>
    <linearGradient id="bg" x1="0" y1="0" x2="1" y2="1">
      <stop offset="0%" stop-color="#f7fbfe" />
      <stop offset="48%" stop-color="#dce9f2" />
      <stop offset="100%" stop-color="#8eaec6" />
    </linearGradient>
    <linearGradient id="panel" x1="0" y1="0" x2="0" y2="1">
      <stop offset="0%" stop-color="#ffffff" stop-opacity="0.86" />
      <stop offset="100%" stop-color="#e5eef4" stop-opacity="0.74" />
    </linearGradient>
    <linearGradient id="chrome" x1="0" y1="0" x2="0" y2="1">
      <stop offset="0%" stop-color="#ffffff" stop-opacity="0.88" />
      <stop offset="62%" stop-color="#d2e3ef" stop-opacity="0.76" />
      <stop offset="100%" stop-color="#a7c0d2" stop-opacity="0.92" />
    </linearGradient>
    <linearGradient id="device" x1="0" y1="0" x2="0" y2="1">
      <stop offset="0%" stop-color="#7fb1d4" />
      <stop offset="56%" stop-color="#4b789d" />
      <stop offset="100%" stop-color="#294764" />
    </linearGradient>
  </defs>
  <rect width="1200" height="860" rx="40" fill="url(#bg)"/>
  <rect x="72" y="84" width="760" height="620" rx="30" fill="url(#panel)" stroke="#bdd0dc" />
  <rect x="72" y="84" width="760" height="78" rx="30" fill="url(#chrome)" />
  <path d="M96 94h712c10 0 18 8 18 18v12H78v-12c0-10 8-18 18-18Z" fill="#fff" opacity="0.42"/>
  <circle cx="122" cy="123" r="10" fill="#d9ecfb"/>
  <circle cx="152" cy="123" r="10" fill="#a9c9de"/>
  <circle cx="182" cy="123" r="10" fill="#7da7c5"/>
  <rect x="108" y="204" width="224" height="452" rx="24" fill="#f4f8fb" stroke="#c7d8e2"/>
  <rect x="362" y="204" width="430" height="122" rx="24" fill="#f8fbfd" stroke="#c7d8e2"/>
  <rect x="362" y="348" width="430" height="308" rx="24" fill="#f8fbfd" stroke="#c7d8e2"/>
  <rect x="394" y="238" width="164" height="18" rx="9" fill="#5e90b8" opacity="0.95"/>
  <rect x="394" y="272" width="324" height="14" rx="7" fill="#c2d4de"/>
  <rect x="394" y="384" width="368" height="54" rx="18" fill="#eef4f7"/>
  <rect x="394" y="454" width="368" height="54" rx="18" fill="#eef4f7"/>
  <rect x="394" y="524" width="368" height="54" rx="18" fill="#eef4f7"/>
  <rect x="394" y="594" width="180" height="34" rx="17" fill="#5e90b8"/>
  <rect x="108" y="242" width="168" height="38" rx="19" fill="#dce8ef"/>
  <rect x="108" y="306" width="176" height="126" rx="18" fill="#eef5f7"/>
  <rect x="108" y="452" width="176" height="126" rx="18" fill="#eef5f7"/>
  <rect x="894" y="154" width="220" height="526" rx="30" fill="url(#device)"/>
  <rect x="928" y="194" width="152" height="372" rx="16" fill="#edf1e8"/>
  <path d="M970 258c18-10 40-14 64-14 13 0 26 2 39 5v194c-12-5-24-8-39-8-24 0-46 7-64 20V258Z" fill="#f6faf2"/>
  <path d="M1036 246v210" stroke="#8d9f97" stroke-width="6" stroke-linecap="round"/>
  <circle cx="1004" cy="624" r="11" fill="#dbe7ed"/>
  <path d="M798 412c48 18 78 37 97 58" stroke="#6d8eab" stroke-width="10" stroke-linecap="round" opacity="0.42"/>
  <path d="M798 466c48 18 78 37 97 58" stroke="#6d8eab" stroke-width="10" stroke-linecap="round" opacity="0.24"/>
  <g transform="translate(874 70)">
    <rect width="132" height="132" rx="34" fill="#ffffff" opacity="0.5"/>
    <rect x="20" y="20" width="92" height="92" rx="24" fill="url(#device)"/>
    <rect x="34" y="34" width="64" height="54" rx="10" fill="#ecf1e8"/>
    <path d="M46 50c9-5 21-8 33-8 7 0 13 1 19 3v22c-6-2-12-3-19-3-13 0-24 3-33 8V50Z" fill="#fafcf7"/>
  </g>
</svg>
